<?xml version="1.0" encoding="UTF-8"?>
<!-- Generator: visioncortex VTracer 0.6.3 -->
<svg version="1.1" xmlns="http://www.w3.org/2000/svg" width="1280" height="842">
<path d="M0 0 C0.84 -0 1.67 -0.01 2.53 -0.01 C5.34 -0.02 8.15 -0.02 10.96 -0.01 C12.97 -0.02 14.98 -0.02 16.99 -0.03 C22.46 -0.04 27.93 -0.04 33.4 -0.04 C37.96 -0.04 42.52 -0.04 47.09 -0.05 C57.85 -0.06 68.62 -0.06 79.38 -0.05 C90.49 -0.05 101.6 -0.06 112.71 -0.08 C122.24 -0.1 131.77 -0.11 141.3 -0.1 C147 -0.1 152.69 -0.1 158.39 -0.12 C163.75 -0.13 169.1 -0.13 174.46 -0.12 C176.43 -0.11 178.39 -0.12 180.36 -0.12 C183.04 -0.13 185.73 -0.13 188.41 -0.11 C189.19 -0.12 189.97 -0.13 190.77 -0.14 C195.56 -0.09 198.83 0.74 202.9 3.26 C204.58 5.14 204.58 5.14 205.9 7.26 C206.41 7.94 206.93 8.61 207.46 9.31 C209.48 13.45 209.31 17.05 209.28 21.6 C209.28 22.55 209.29 23.49 209.29 24.47 C209.3 27.64 209.29 30.8 209.29 33.97 C209.29 36.24 209.29 38.51 209.3 40.78 C209.31 46.95 209.31 53.11 209.3 59.28 C209.29 65.73 209.3 72.18 209.3 78.63 C209.31 90.15 209.3 101.67 209.29 113.19 C209.27 123.64 209.27 134.09 209.29 144.54 C209.3 156.67 209.31 168.81 209.3 180.94 C209.3 187.36 209.3 193.79 209.31 200.21 C209.31 206.25 209.31 212.28 209.29 218.32 C209.29 220.54 209.29 222.76 209.3 224.98 C209.3 228 209.29 231.02 209.28 234.04 C209.28 234.93 209.29 235.81 209.3 236.72 C209.26 241.19 209.19 243.92 205.9 247.26 C205.61 247.92 205.32 248.58 205.02 249.26 C203.39 252.16 201.7 253.45 198.9 255.26 C195.99 255.65 193.46 255.8 190.55 255.77 C189.72 255.77 188.88 255.78 188.02 255.79 C185.21 255.8 182.41 255.79 179.61 255.78 C177.6 255.78 175.58 255.79 173.57 255.8 C168.11 255.82 162.65 255.81 157.19 255.8 C151.48 255.79 145.77 255.8 140.05 255.8 C130.46 255.81 120.86 255.8 111.26 255.78 C100.17 255.76 89.08 255.77 77.98 255.79 C68.46 255.81 58.93 255.81 49.41 255.8 C43.72 255.79 38.03 255.79 32.34 255.81 C26.99 255.82 21.65 255.81 16.3 255.79 C14.33 255.78 12.37 255.78 10.41 255.79 C7.73 255.8 5.05 255.79 2.37 255.77 C1.59 255.78 0.81 255.79 0.01 255.8 C-5.17 255.72 -8.11 254.54 -12.1 251.26 C-16.54 245.29 -16.25 239.03 -16.26 231.9 C-16.26 230.95 -16.27 230.01 -16.27 229.03 C-16.28 225.86 -16.29 222.68 -16.3 219.51 C-16.3 217.23 -16.31 214.96 -16.32 212.68 C-16.35 205.21 -16.36 197.74 -16.38 190.27 C-16.38 187.7 -16.39 185.12 -16.39 182.55 C-16.41 171.86 -16.43 161.16 -16.44 150.47 C-16.45 147.69 -16.45 144.92 -16.45 142.15 C-16.45 141.46 -16.45 140.77 -16.46 140.06 C-16.47 128.89 -16.5 117.72 -16.54 106.55 C-16.59 95.08 -16.61 83.6 -16.61 72.13 C-16.62 65.69 -16.63 59.25 -16.66 52.81 C-16.69 46.76 -16.7 40.7 -16.69 34.65 C-16.69 32.42 -16.69 30.2 -16.71 27.98 C-16.74 24.94 -16.73 21.91 -16.71 18.88 C-16.72 18 -16.74 17.12 -16.75 16.21 C-16.68 10.3 -15.29 6.52 -11.1 2.26 C-7.33 -0.25 -4.37 -0.02 0 0 Z M106.91 28.9 C98.11 29.2 89.32 29.28 80.51 29.26 C70.71 29.24 60.92 29.38 51.12 29.58 C49.1 29.62 47.08 29.65 45.07 29.68 C42.1 29.73 39.13 29.79 36.16 29.85 C34.81 29.86 34.81 29.86 33.42 29.88 C32.18 29.91 32.18 29.91 30.91 29.94 C29.81 29.96 29.81 29.96 28.7 29.98 C26.65 30.12 26.65 30.12 24.9 32.26 C24.45 35.25 24.45 35.25 24.3 38.77 C24.22 40.09 24.14 41.4 24.06 42.76 C23.98 44.16 23.91 45.55 23.83 46.95 C23.72 49 23.6 51.06 23.48 53.11 C23.37 54.99 23.26 56.87 23.16 58.74 C22.9 62.26 22.9 62.26 22.39 65.58 C21.93 69.01 21.76 72.26 21.74 75.73 C21.73 76.98 21.73 78.24 21.72 79.53 C21.71 80.91 21.71 82.28 21.7 83.65 C21.7 85.11 21.69 86.58 21.68 88.04 C21.65 92.81 21.64 97.59 21.62 102.36 C21.62 104.01 21.61 105.66 21.61 107.31 C21.59 114.16 21.57 121.01 21.56 127.86 C21.54 137.66 21.51 147.47 21.45 157.28 C21.41 164.18 21.39 171.08 21.39 177.99 C21.38 182.11 21.37 186.23 21.34 190.35 C21.31 194.22 21.3 198.1 21.31 201.97 C21.31 203.39 21.31 204.81 21.29 206.23 C21.26 208.17 21.28 210.11 21.29 212.05 C21.29 213.13 21.28 214.22 21.28 215.34 C22.11 219.26 23.84 220.76 26.9 223.26 C39.6 227 54.52 225.54 67.61 225.49 C69.96 225.49 72.31 225.49 74.67 225.49 C79.56 225.49 84.45 225.48 89.34 225.47 C95.62 225.45 101.9 225.45 108.18 225.45 C113.02 225.45 117.86 225.44 122.69 225.43 C125.01 225.43 127.33 225.43 129.65 225.43 C132.87 225.43 136.09 225.42 139.31 225.41 C140.27 225.41 141.23 225.41 142.22 225.41 C143.09 225.4 143.96 225.4 144.86 225.39 C145.62 225.39 146.38 225.39 147.16 225.39 C148.93 225.45 148.93 225.45 149.9 224.26 C153.19 223.97 156.49 223.81 159.8 223.64 C163.06 223.48 163.06 223.48 165.9 221.26 C166.62 218.6 167.15 216.1 167.58 213.39 C167.71 212.68 167.84 211.98 167.98 211.26 C168.87 205.97 168.94 200.86 168.88 195.5 C168.91 189.65 169.44 183.84 169.9 178.01 C172.45 160.56 172.45 160.56 168.9 144.26 C167.02 143.04 167.02 143.04 164.9 142.07 C164.2 141.73 163.49 141.38 162.77 141.03 C160.93 140.13 160.93 140.13 158.9 140.26 C159.23 139.27 159.56 138.28 159.9 137.26 C155.63 134.31 155.63 134.31 150.9 132.26 C150.06 130.3 150.06 130.3 149.52 127.89 C149.33 127.09 149.14 126.3 148.94 125.49 C148.9 123.26 148.9 123.26 150.23 121.6 C151.06 120.94 151.06 120.94 151.9 120.26 C152.56 119.6 153.22 118.94 153.9 118.26 C155.47 117.77 157.05 117.34 158.65 116.95 C163.53 115.58 166.25 113.72 169.9 110.26 C170.23 110.26 170.56 110.26 170.9 110.26 C170.9 102.34 170.9 94.42 170.9 86.26 C170.24 86.26 169.58 86.26 168.9 86.26 C169.23 85.6 169.56 84.94 169.9 84.26 C171.92 56.41 171.92 56.41 165.76 30.14 C163.99 27.98 163.99 27.98 161.01 27.79 C159.24 27.81 159.24 27.81 157.43 27.83 C156.78 27.84 156.13 27.84 155.45 27.84 C153.29 27.86 151.12 27.9 148.96 27.95 C147.44 27.97 145.92 27.98 144.39 28 C131.9 28.14 119.4 28.48 106.91 28.9 Z M162.9 139.26 C162.9 139.92 162.9 140.58 162.9 141.26 C163.56 140.93 164.22 140.6 164.9 140.26 C164.24 139.93 163.58 139.6 162.9 139.26 Z " fill="#18A9B1" transform="translate(263.1029815673828,285.7393035888672)"/>
<path d="M0 0 C2.73 -0.25 5.21 -0.33 7.94 -0.25 C9.03 -0.24 9.03 -0.24 10.15 -0.23 C13.34 -0.19 15.95 -0.02 19 1 C20.66 4.33 20.24 8.07 20.32 11.73 C20.34 12.62 20.36 13.51 20.38 14.43 C20.45 17.35 20.51 20.27 20.56 23.19 C20.58 24.18 20.6 25.17 20.62 26.2 C20.74 32.21 20.85 38.22 20.95 44.24 C21 46.77 21.04 49.3 21.09 51.83 C21.56 77.17 21.56 77.17 19.75 88.62 C19.64 89.32 19.53 90.02 19.42 90.74 C18.57 95.13 16.98 97.72 14 101 C13.53 101.7 13.07 102.4 12.59 103.12 C10.55 105.53 8.42 106.66 5.62 108.12 C4.69 108.62 3.75 109.12 2.79 109.63 C-1.85 111.91 -5.56 113.23 -10.75 113.56 C-14.19 113.51 -14.19 113.51 -17 115 C-18.48 115.1 -19.96 115.13 -21.44 115.12 C-22.24 115.13 -23.04 115.13 -23.87 115.13 C-26 115 -26 115 -28 114 C-30.2 113.81 -32.4 113.68 -34.61 113.57 C-38.06 112.75 -39.64 111.66 -42 109 C-42.6 106.06 -42.47 103.24 -42.31 100.25 C-42.29 99.46 -42.27 98.66 -42.24 97.85 C-42.19 95.9 -42.1 93.95 -42 92 C-41.01 92.31 -40.02 92.62 -39 92.94 C-32.04 94.91 -25.18 95.14 -18 95.06 C-17.23 95.06 -16.45 95.05 -15.65 95.05 C-13.77 95.04 -11.88 95.02 -10 95 C-9.5 93.51 -9.5 93.51 -9 92 C-6.52 91.5 -6.52 91.5 -4 91 C-3.5 89.51 -3.5 89.51 -3 88 C-2.67 87.67 -2.34 87.34 -2 87 C-1.93 84.48 -2 81.97 -2.06 79.45 C-2 77 -2 77 -1 74 C-1.4 74.39 -1.8 74.77 -2.21 75.17 C-8.02 80.49 -14.95 84.68 -23 85 C-36.03 83.66 -46.15 79.27 -54.6 69.07 C-60 61.73 -60 61.73 -60 57 C-60.66 56.67 -61.32 56.34 -62 56 C-63.11 51.35 -63.18 46.69 -63.19 41.94 C-63.2 41.24 -63.21 40.55 -63.22 39.83 C-63.24 35.73 -62.72 32.71 -61 29 C-60.84 27.95 -60.67 26.9 -60.5 25.81 C-60 23 -60 23 -58 21 C-58.66 20.34 -59.32 19.68 -60 19 C-58.5 17.76 -57.01 16.53 -55.51 15.29 C-53.4 13.49 -51.53 11.51 -49.62 9.5 C-46.74 6.75 -44.66 5.38 -40.81 4.5 C-40.21 4.33 -39.62 4.17 -39 4 C-38.67 3.34 -38.34 2.68 -38 2 C-37.01 2.33 -36.02 2.66 -35 3 C-35 2.34 -35 1.68 -35 1 C-31.75 0.97 -28.5 0.95 -25.25 0.94 C-24.33 0.93 -23.41 0.92 -22.46 0.91 C-21.57 0.91 -20.68 0.91 -19.77 0.9 C-18.95 0.9 -18.13 0.89 -17.29 0.89 C-12.98 1.1 -10.92 1.85 -8 5 C-4.91 8 -4.91 8 -1 9 C-1.21 8.07 -1.41 7.14 -1.62 6.19 C-2 3 -2 3 0 0 Z M-35.88 24.81 C-38.33 27.34 -39.57 29.8 -41 33 C-41.66 33.99 -42.32 34.98 -43 36 C-43.14 38.77 -43.19 41.43 -43.12 44.19 C-43.12 44.94 -43.11 45.69 -43.1 46.46 C-43.07 48.31 -43.04 50.15 -43 52 C-42.01 52.33 -41.02 52.66 -40 53 C-38.62 54.97 -37.29 56.97 -36 59 C-32.72 62.28 -29.52 63.25 -25 64 C-25 64.33 -25 64.66 -25 65 C-16.42 65.53 -10.61 63.8 -4 58 C-4.33 57.34 -4.66 56.68 -5 56 C-4.67 55.67 -4.34 55.34 -4 55 C-3.34 55 -2.68 55 -2 55 C1.01 40.01 1.01 40.01 -4 26 C-5.92 24.3 -7.74 23.25 -10 22 C-10.5 21.01 -10.5 21.01 -11 20 C-11.99 20.33 -12.98 20.66 -14 21 C-15.55 20.84 -17.09 20.62 -18.62 20.38 C-25.29 19.63 -30.25 21.27 -35.88 24.81 Z M-37 109 C-36 111 -36 111 -36 111 Z " fill="#E5ECED" transform="translate(802,372)"/>
<path d="M0 0 C6.6 0 13.2 0 20 0 C20.33 11.55 20.66 23.1 21 35 C25.8 33.46 25.8 33.46 28 31 C33.63 27.91 38.47 27.76 44.75 27.69 C45.63 27.66 46.51 27.63 47.42 27.6 C53.56 27.54 56.95 28.49 62 32 C62.81 32.55 63.61 33.11 64.44 33.68 C71.75 39.31 79.46 46.21 81.59 55.61 C83.08 67.96 83.43 80.96 77.31 92.06 C66.33 106.01 66.33 106.01 57 108.56 C54.31 109.32 51.87 110.06 49.31 111.19 C42.25 113.67 36.06 111.04 29.69 108 C26.13 106.27 26.13 106.27 25 104 C23.69 102.97 22.36 101.96 21 101 C20.2 104.29 19.9 105.71 21 109 C20.01 109 19.02 109 18 109 C18 109.66 18 110.32 18 111 C17.01 111 16.02 111 15 111 C15 110.34 15 109.68 15 109 C10.05 109.33 5.1 109.66 0 110 C-2.25 103.25 -2.25 103.25 -2 99 C-1.67 99 -1.34 99 -1 99 C-1 76.56 -1 54.12 -1 31 C-1.33 31 -1.66 31 -2 31 C-2 28.69 -2 26.38 -2 24 C-1.67 24 -1.34 24 -1 24 C-0.67 16.08 -0.34 8.16 0 0 Z M31 49 C29.34 49.36 27.67 49.7 26 50 C25.67 50.99 25.34 51.98 25 53 C24.01 53.5 24.01 53.5 23 54 C18.5 61.26 18.75 70.66 20.66 78.8 C23.25 85.46 27.59 88.47 33.94 91.31 C40.72 92.83 45.68 92.35 51.89 89.34 C56.46 86.44 60.04 82.05 62 77 C62.88 67.6 62.26 61 57.12 53.12 C54.72 50.72 53.34 50.28 50 50 C50 49.34 50 48.68 50 48 C47.96 47.78 45.92 47.57 43.88 47.38 C42.74 47.26 41.6 47.14 40.43 47.02 C36.81 47 34.35 47.7 31 49 Z M67 98 C67.33 98.66 67.66 99.32 68 100 C68.66 99.34 69.32 98.68 70 98 C69.01 98 68.02 98 67 98 Z M65 100 C65.33 100.66 65.66 101.32 66 102 C66.33 101.34 66.66 100.68 67 100 C66.34 100 65.68 100 65 100 Z M62 103 C62.33 103.66 62.66 104.32 63 105 C63.33 104.34 63.66 103.68 64 103 C63.34 103 62.68 103 62 103 Z " fill="#E8EDEE" transform="translate(511,345)"/>
<path d="M0 0 C0.5 0.99 0.5 0.99 1 2 C1.99 1.34 2.98 0.68 4 0 C6.26 -0.2 6.26 -0.2 8.69 -0.12 C9.9 -0.1 9.9 -0.1 11.14 -0.07 C12.06 -0.04 12.06 -0.04 13 0 C13 0.33 13 0.66 13 1 C13.56 1.1 14.11 1.2 14.69 1.3 C23.76 3.08 31.79 7.16 39 13 C39 13.66 39 14.32 39 15 C39.66 15 40.32 15 41 15 C42.4 16.72 42.4 16.72 43.94 19.06 C44.44 19.82 44.95 20.57 45.46 21.35 C49.88 28.98 50.61 34.89 50.62 43.69 C50.63 44.85 50.63 46.01 50.63 47.21 C50.45 56.26 49.01 62.02 43 69 C42.34 69.99 41.68 70.98 41 72 C40.34 72 39.68 72 39 72 C38.5 73.49 38.5 73.49 38 75 C32.35 79.94 26.15 82.18 19 84 C17.89 84.41 16.77 84.82 15.62 85.25 C4.39 87.57 -4.7 83.66 -14.28 78.14 C-16.9 76.4 -18.96 74.37 -21 72 C-21 71.34 -21 70.68 -21 70 C-21.99 69.67 -22.98 69.34 -24 69 C-28.24 64.17 -29.95 58.46 -31.42 52.32 C-31.91 49.99 -31.91 49.99 -33 48 C-32.96 45.48 -32.86 43.01 -32.69 40.5 C-32.63 39.47 -32.63 39.47 -32.58 38.41 C-32.24 33.24 -32.24 33.24 -30 31 C-28.78 27.82 -28 25.42 -28 22 C-26.55 17.97 -23.55 15.26 -20.56 12.31 C-19.83 11.57 -19.83 11.57 -19.08 10.8 C-15.76 7.5 -13.79 6 -9 6 C-8.01 5.34 -7.02 4.68 -6 4 C-4.68 4 -3.36 4 -2 4 C-2 3.34 -2 2.68 -2 2 C-1.34 2 -0.68 2 0 2 C0 1.34 0 0.68 0 0 Z M-5.88 27.44 C-11.37 33.15 -11.63 38.42 -11.71 46.06 C-11.54 51.47 -10.64 54.71 -7 58.94 C-1.7 63.77 2.69 65.68 9.88 66.38 C11.42 66.19 11.42 66.19 13 66 C13.66 65.01 14.32 64.02 15 63 C16.32 63.33 17.64 63.66 19 64 C19.33 63.01 19.66 62.02 20 61 C22.29 59.63 24.46 58.85 27 58 C27.19 56.79 27.19 56.79 27.38 55.56 C27.58 54.72 27.79 53.87 28 53 C28.66 52.67 29.32 52.34 30 52 C31.76 44.01 31.43 36.02 27 29 C25.1 27.02 23.27 25.61 21 24 C20.01 24 19.02 24 18 24 C18 23.34 18 22.68 18 22 C8.2 20.64 1.51 20.39 -5.88 27.44 Z " fill="#E4ECED" transform="translate(676,371)"/>
<path d="M0 0 C5.28 0.66 10.56 1.32 16 2 C16 5.3 16 8.6 16 12 C15.34 12 14.68 12 14 12 C13.89 12.57 13.78 13.14 13.67 13.72 C12.62 18.81 11.19 23.27 9 28 C7.55 31.3 6.14 34.58 5 38 C4.01 38 3.02 38 2 38 C2.33 38.99 2.66 39.98 3 41 C2.07 43.52 2.07 43.52 0.69 46.38 C-1 49.88 -2.58 53.38 -4 57 C-6.62 63.2 -9.57 69.21 -12.63 75.2 C-14.04 77.96 -14.04 77.96 -14.99 80.8 C-15.32 81.52 -15.66 82.25 -16 83 C-16.99 83.33 -17.98 83.66 -19 84 C-18.75 84.66 -18.5 85.32 -18.25 86 C-17.88 90.44 -19.88 93.2 -22 97 C-22.7 98.35 -23.38 99.7 -24.06 101.06 C-24.39 101.72 -24.72 102.37 -25.05 103.04 C-26.48 105.99 -27.73 108.99 -29 112 C-29.33 112.66 -29.66 113.32 -30 114 C-36.27 114 -42.54 114 -49 114 C-49.33 112.35 -49.66 110.7 -50 109 C-49.01 108.01 -49.01 108.01 -48 107 C-46.51 104.54 -45.96 102.75 -45.5 99.88 C-45 97 -45 97 -43 95 C-42.5 93.51 -42.5 93.51 -42 92 C-41.34 92 -40.68 92 -40 92 C-39.86 91.24 -39.71 90.47 -39.56 89.69 C-39 87 -39 87 -38 84 C-37.11 76.98 -39.33 72.68 -42.69 66.54 C-44 64 -44 64 -44 62 C-44.66 61.67 -45.32 61.34 -46 61 C-45.67 60.01 -45.34 59.02 -45 58 C-45.66 57.67 -46.32 57.34 -47 57 C-47.82 55.21 -47.82 55.21 -48.69 52.81 C-50.86 47.14 -53.55 41.79 -56.32 36.39 C-58.02 32.97 -59.52 29.53 -61 26 C-63.4 20.28 -66.02 14.68 -68.7 9.09 C-69.86 6.34 -70.55 3.93 -71 1 C-67.73 1.08 -64.46 1.19 -61.19 1.31 C-60.26 1.34 -59.33 1.36 -58.37 1.38 C-57.48 1.42 -56.59 1.45 -55.67 1.49 C-54.43 1.53 -54.43 1.53 -53.18 1.57 C-50.54 2.09 -49.65 2.91 -48 5 C-47.19 6.98 -47.19 6.98 -46.56 9.19 C-45.48 12.97 -43.89 16.27 -42.11 19.75 C-40.1 23.82 -38.38 28.01 -36.62 32.19 C-33.22 40.2 -29.72 48.13 -26 56 C-25.67 55.67 -25.34 55.34 -25 55 C-25.66 54.34 -26.32 53.68 -27 53 C-26.01 53 -25.02 53 -24 53 C-23.75 51.76 -23.5 50.52 -23.25 49.25 C-22.3 45.37 -20.87 43.78 -18 41 C-17.2 37.86 -17.2 37.86 -17 35 C-16.34 35 -15.68 35 -15 35 C-14.85 33.39 -14.85 33.39 -14.69 31.75 C-14.03 28.14 -13.43 26.64 -11 24 C-11.99 23.67 -12.98 23.34 -14 23 C-12.38 20.96 -10.71 18.96 -9 17 C-8.34 17 -7.68 17 -7 17 C-7 15.35 -7 13.7 -7 12 C-6.34 11.67 -5.68 11.34 -5 11 C-4.66 9 -4.33 7 -4 5 C-3.34 4.34 -2.68 3.68 -2 3 C-1.34 2.01 -0.68 1.02 0 0 Z M6 26 C7 28 7 28 7 28 Z M-1 41 C0 43 0 43 0 43 Z M-22 87 C-21 89 -21 89 -21 89 Z M-27 100 C-26 102 -26 102 -26 102 Z " fill="#E5ECED" transform="translate(1007,371)"/>
<path d="M0 0 C0.33 0.66 0.66 1.32 1 2 C1.62 1.67 2.24 1.34 2.88 1 C11.33 -1.71 20.76 0.19 29 3 C30.88 4.46 30.88 4.46 32 6 C31.87 10.62 29.41 14.2 27 18 C26.01 18.5 26.01 18.5 25 19 C24.67 19.66 24.34 20.32 24 21 C23.01 20.67 22.02 20.34 21 20 C16.93 19.61 13.26 19.43 9.5 21.12 C7.48 23.65 7.28 25.83 7 29 C7.57 28.84 8.13 28.68 8.72 28.51 C11.05 27.99 13.12 27.83 15.5 27.81 C16.25 27.8 17.01 27.78 17.78 27.77 C20.64 28.07 22.95 28.95 25 31 C25.09 32.34 25.11 33.69 25.1 35.04 C25.1 35.76 25.09 36.49 25.09 37.24 C25.08 38.17 25.07 39.1 25.06 40.06 C25.04 43.01 25.02 45.96 25 49 C18.73 49 12.46 49 6 49 C6.33 49.99 6.66 50.98 7 52 C7.09 53.92 7.12 55.84 7.11 57.76 C7.11 58.94 7.11 60.12 7.11 61.34 C7.11 62.61 7.1 63.89 7.1 65.2 C7.1 66.5 7.09 67.81 7.09 69.15 C7.09 72.62 7.08 76.09 7.07 79.56 C7.06 83.1 7.05 86.63 7.05 90.17 C7.04 97.12 7.02 104.06 7 111 C0.07 111 -6.86 111 -14 111 C-15.03 107.92 -15.16 105.69 -15.22 102.46 C-15.24 101.32 -15.27 100.19 -15.29 99.02 C-15.31 97.8 -15.33 96.57 -15.35 95.31 C-15.37 94.05 -15.4 92.8 -15.42 91.5 C-15.47 88.84 -15.52 86.19 -15.56 83.53 C-15.61 80.12 -15.68 76.71 -15.74 73.3 C-15.8 70.06 -15.86 66.81 -15.91 63.56 C-15.94 62.33 -15.96 61.1 -15.99 59.84 C-16 58.71 -16.02 57.58 -16.04 56.41 C-16.05 55.41 -16.07 54.41 -16.09 53.38 C-16 51 -16 51 -15 49 C-15.63 49.01 -16.25 49.02 -16.9 49.04 C-17.72 49.04 -18.53 49.05 -19.38 49.06 C-20.59 49.08 -20.59 49.08 -21.84 49.1 C-24 49 -24 49 -26 48 C-26.13 45.39 -26.23 42.8 -26.31 40.19 C-26.35 39.45 -26.4 38.71 -26.44 37.95 C-26.49 35.79 -26.49 35.79 -26 32 C-23.69 29.97 -23.69 29.97 -21 29 C-17.69 29.31 -17.69 29.31 -15 30 C-14.94 29.43 -14.88 28.86 -14.82 28.28 C-14.55 25.85 -14.28 23.43 -14 21 C-13.86 19.7 -13.71 18.4 -13.56 17.06 C-13 14 -13 14 -11 12 C-11 11.01 -11 10.02 -11 9 C-8.6 5.68 -6.05 3.32 -2.12 2.12 C-1.07 2.06 -1.07 2.06 0 2 C0 1.34 0 0.68 0 0 Z M-23 45 C-22 48 -22 48 -22 48 Z " fill="#E5ECED" transform="translate(898,343)"/>
<path d="M0 0 C6.27 0.33 12.54 0.66 19 1 C19 36.97 19 72.94 19 110 C18.01 110.5 18.01 110.5 17 111 C17 110.34 17 109.68 17 109 C15.51 109.5 15.51 109.5 14 110 C11.26 110.07 8.55 110.09 5.81 110.06 C5.06 110.06 4.31 110.05 3.54 110.05 C1.69 110.04 -0.15 110.02 -2 110 C-2.05 95.95 -2.08 81.91 -2.1 67.86 C-2.11 61.34 -2.13 54.82 -2.15 48.29 C-2.17 42 -2.18 35.71 -2.19 29.43 C-2.19 27.02 -2.2 24.62 -2.21 22.21 C-2.23 18.86 -2.23 15.5 -2.23 12.14 C-2.23 11.14 -2.24 10.14 -2.25 9.1 C-2.25 8.19 -2.24 7.28 -2.24 6.34 C-2.24 5.55 -2.24 4.75 -2.25 3.93 C-2 2 -2 2 0 0 Z " fill="#E9EDEE" transform="translate(610,344)"/>
<path d="M0 0 C0.79 0.25 0.79 0.25 1.59 0.5 C5.69 1.35 9.83 0.96 14 0.84 C17 1 17 1 20 3 C20.29 5.6 20.38 7.97 20.34 10.57 C20.34 11.74 20.34 11.74 20.34 12.94 C20.34 15.52 20.32 18.11 20.29 20.7 C20.29 22.49 20.28 24.28 20.28 26.07 C20.27 30.79 20.24 35.5 20.21 40.22 C20.18 45.03 20.16 49.85 20.15 54.66 C20.11 64.11 20.06 73.55 20 83 C17.14 83.76 14.85 84.08 11.89 83.88 C11.14 83.83 10.38 83.78 9.61 83.73 C8.83 83.68 8.05 83.62 7.25 83.56 C6.46 83.51 5.66 83.46 4.85 83.4 C2.9 83.28 0.95 83.14 -1 83 C-2.16 79.53 -2.18 76.72 -2.25 73.05 C-2.27 72.35 -2.28 71.65 -2.3 70.92 C-2.34 68.6 -2.38 66.27 -2.42 63.95 C-2.44 63.15 -2.45 62.36 -2.46 61.54 C-2.54 57.33 -2.6 53.12 -2.67 48.91 C-2.73 44.57 -2.82 40.23 -2.91 35.89 C-2.97 32.55 -3.02 29.21 -3.07 25.86 C-3.1 24.26 -3.13 22.66 -3.16 21.06 C-3.21 18.82 -3.24 16.58 -3.26 14.33 C-3.29 13.06 -3.31 11.79 -3.33 10.47 C-2.97 6.68 -1.87 4.29 0 1 C0 0.67 0 0.34 0 0 Z " fill="#E8EDEE" transform="translate(841,371)"/>
<path d="M0 0 C3.99 0.81 6.61 2.42 9.06 5.62 C10.11 8.32 10.57 10.74 11.06 13.62 C11.39 13.62 11.72 13.62 12.06 13.62 C12.48 15.41 12.48 15.41 12.9 17.24 C13.27 18.8 13.63 20.37 14 21.94 C14.18 22.72 14.36 23.51 14.55 24.32 C14.73 25.08 14.91 25.83 15.09 26.61 C15.25 27.31 15.41 28.01 15.58 28.72 C16 30.38 16.52 32.01 17.06 33.62 C16.75 35.44 16.75 35.44 16.06 37.62 C15.84 38.64 15.61 39.65 15.38 40.69 C13.67 44.49 11.81 45.03 8.06 46.62 C7.73 47.28 7.4 47.94 7.06 48.62 C-1.89 49.08 -1.89 49.08 -5.94 45.62 C-8.15 41.41 -8.27 37.32 -8.31 32.66 C-8.32 31.9 -8.33 31.14 -8.34 30.36 C-8.35 28.76 -8.36 27.17 -8.36 25.57 C-8.37 23.13 -8.42 20.7 -8.47 18.26 C-8.48 16.71 -8.49 15.15 -8.5 13.59 C-8.52 12.87 -8.54 12.15 -8.56 11.4 C-8.52 7.47 -8.06 5.78 -5.59 2.67 C-2.94 0.62 -2.94 0.62 0 0 Z M10.06 39.62 C11.06 42.62 11.06 42.62 11.06 42.62 Z " fill="#1AAAB2" transform="translate(357.9375,343.375)"/>
<path d="M0 0 C0 0.66 0 1.32 0 2 C0.8 2.12 1.61 2.25 2.44 2.38 C3.28 2.58 4.13 2.79 5 3 C9.1 11.2 9.1 17.06 7 26 C6.67 26 6.34 26 6 26 C5.99 26.87 5.99 26.87 5.99 27.76 C5.95 30.4 5.88 33.04 5.81 35.69 C5.81 36.6 5.8 37.51 5.79 38.45 C5.65 43.03 5.51 45.32 2.68 49.06 C-0.49 51.35 -3.17 52.28 -7 53 C-7.66 52.67 -8.32 52.34 -9 52 C-9 51.34 -9 50.68 -9 50 C-9.99 49.67 -10.98 49.34 -12 49 C-12.62 47.25 -12.62 47.25 -13 45 C-13.17 44.29 -13.34 43.58 -13.52 42.84 C-14.12 39.29 -14.09 35.83 -14.02 32.25 C-14.01 31.51 -13.99 30.78 -13.98 30.02 C-13.94 28.47 -13.91 26.92 -13.87 25.37 C-13.81 23.01 -13.78 20.65 -13.76 18.28 C-13.72 16.77 -13.68 15.26 -13.64 13.75 C-13.64 13.05 -13.64 12.35 -13.63 11.62 C-13.47 6.85 -12.38 4.36 -9 1 C-6.05 -0.24 -3.17 -0.09 0 0 Z M4 8 C5 10 5 10 5 10 Z M4 15 C4 16.65 4 18.3 4 20 C4.33 20 4.66 20 5 20 C5 18.35 5 16.7 5 15 C4.67 15 4.34 15 4 15 Z " fill="#19A8B0" transform="translate(362,424)"/>
<path d="M0 0 C1.3 0.06 1.3 0.06 2.63 0.12 C4.04 0.19 4.04 0.19 5.48 0.26 C6.96 0.33 6.96 0.33 8.47 0.41 C9.46 0.46 10.45 0.5 11.47 0.55 C18.85 0.91 18.85 0.91 19.97 2.04 C20.07 5.03 20.11 7.99 20.1 10.98 C20.11 12.23 20.11 12.23 20.11 13.51 C20.11 14.31 20.11 15.11 20.11 15.94 C20.11 16.68 20.11 17.41 20.1 18.17 C19.97 20.04 19.97 20.04 18.97 22.04 C12.62 23.28 5.84 23.83 -0.13 21.06 C-3.17 17.82 -2.74 14.2 -2.84 9.91 C-2.88 9.08 -2.91 8.24 -2.95 7.38 C-3.03 5.27 -3.04 3.15 -3.03 1.04 C-2.03 0.04 -2.03 0.04 0 0 Z M5.97 20.04 C5.97 20.37 5.97 20.7 5.97 21.04 C7.62 21.04 9.27 21.04 10.97 21.04 C10.97 20.71 10.97 20.38 10.97 20.04 C9.32 20.04 7.67 20.04 5.97 20.04 Z " fill="#CFDCDD" transform="translate(841.025390625,343.96240234375)"/>
<path d="M0 0 C64.68 0 129.36 0 196 0 C196 0.33 196 0.66 196 1 C131.32 1 66.64 1 0 1 C0 0.67 0 0.34 0 0 Z " fill="#000102" transform="translate(262,542)"/>
<path d="M0 0 C0.33 0 0.66 0 1 0 C1.28 1.19 1.55 2.38 1.84 3.61 C2.21 5.18 2.57 6.75 2.94 8.31 C3.12 9.1 3.3 9.88 3.49 10.69 C3.67 11.45 3.84 12.21 4.03 12.99 C4.19 13.68 4.35 14.38 4.52 15.1 C4.94 16.75 5.46 18.38 6 20 C5.69 21.81 5.69 21.81 5 24 C4.73 25.03 4.46 26.06 4.19 27.12 C2.83 30.42 2.13 30.67 -1 32 C-1.21 9.2 -1.21 9.2 0 0 Z " fill="#000102" transform="translate(369,357)"/>
<path d="M0 0 C2 1 2 1 3.25 4.31 C4.59 9.99 3.21 15.4 2 21 C1.67 21 1.34 21 1 21 C0.63 18.81 0.28 16.63 -0.06 14.44 C-0.26 13.22 -0.46 12 -0.66 10.75 C-1 6.95 -0.69 3.74 0 0 Z " fill="#000102" transform="translate(367,429)"/>
<path d="M0 0 C0.33 0 0.66 0 1 0 C1 14.85 1 29.7 1 45 C0.67 45 0.34 45 0 45 C0 30.15 0 15.3 0 0 Z " fill="#000102" transform="translate(286,355)"/>
<path d="M0 0 C4.28 1.37 6.43 3.21 9.31 6.62 C10.01 7.44 10.71 8.26 11.43 9.1 C11.95 9.73 12.46 10.35 13 11 C10 11 10 11 8.06 9.12 C7.38 8.42 6.7 7.72 6 7 C4.95 6.54 4.95 6.54 3.88 6.06 C1.25 4.58 0.88 2.79 0 0 Z " fill="#3DB6BC" transform="translate(650,435)"/>
<path d="M0 0 C11.22 0 22.44 0 34 0 C34 0.33 34 0.66 34 1 C22.78 1 11.56 1 0 1 C0 0.67 0 0.34 0 0 Z " fill="#000102" transform="translate(393,315)"/>
<path d="M0 0 C0.33 0.66 0.66 1.32 1 2 C0.34 2.66 -0.32 3.32 -1 4 C-1.27 4.64 -1.54 5.28 -1.81 5.94 C-3.37 8.64 -5.28 9.57 -8 11 C-3.98 2.65 -3.98 2.65 0 0 Z " fill="#EAEEEF" transform="translate(663,377)"/>
<path d="M0 0 C5.28 0 10.56 0 16 0 C15.34 0.66 14.68 1.32 14 2 C10.74 1.98 10.74 1.98 6.88 1.62 C5.59 1.51 4.31 1.4 2.99 1.29 C2 1.19 1.02 1.1 0 1 C0 0.67 0 0.34 0 0 Z " fill="#000102" transform="translate(905,393)"/>
<path d="M0 0 C0.33 0 0.66 0 1 0 C1 6.93 1 13.86 1 21 C0.67 21 0.34 21 0 21 C0 14.07 0 7.14 0 0 Z " fill="#EAEEEF" transform="translate(606,412)"/>
<path d="M0 0 C6.93 0 13.86 0 21 0 C21 0.33 21 0.66 21 1 C14.07 1 7.14 1 0 1 C0 0.67 0 0.34 0 0 Z " fill="#000102" transform="translate(290,317)"/>
<path d="M0 0 C5.61 0 11.22 0 17 0 C17 0.33 17 0.66 17 1 C11.39 1 5.78 1 0 1 C0 0.67 0 0.34 0 0 Z " fill="#000102" transform="translate(886,455)"/>
<path d="M0 0 C5.61 0 11.22 0 17 0 C17 0.33 17 0.66 17 1 C11.39 1 5.78 1 0 1 C0 0.67 0 0.34 0 0 Z " fill="#000102" transform="translate(314,317)"/>
<path d="M0 0 C5.28 0 10.56 0 16 0 C16 0.33 16 0.66 16 1 C10.72 1 5.44 1 0 1 C0 0.67 0 0.34 0 0 Z " fill="#000102" transform="translate(841,455)"/>
<path d="M0 0 C4.95 0 9.9 0 15 0 C15 0.33 15 0.66 15 1 C10.05 1 5.1 1 0 1 C0 0.67 0 0.34 0 0 Z " fill="#000102" transform="translate(609,455)"/>
<path d="M0 0 C3.96 0 7.92 0 12 0 C12 0.33 12 0.66 12 1 C8.04 1 4.08 1 0 1 C0 0.67 0 0.34 0 0 Z " fill="#000102" transform="translate(513,455)"/>
<path d="M0 0 C0.33 0 0.66 0 1 0 C1 3.96 1 7.92 1 12 C0.67 12 0.34 12 0 12 C0 8.04 0 4.08 0 0 Z " fill="#19AAB2" transform="translate(432,373)"/>
<path d="M0 0 C0.33 0 0.66 0 1 0 C1 3.96 1 7.92 1 12 C0.67 12 0.34 12 0 12 C0 8.04 0 4.08 0 0 Z " fill="#EAEEEF" transform="translate(606,371)"/>
<path d="M0 0 C0.33 0 0.66 0 1 0 C1 3.63 1 7.26 1 11 C0.67 11 0.34 11 0 11 C0 7.37 0 3.74 0 0 Z " fill="#EAEEEF" transform="translate(509,430)"/>
<path d="M0 0 C0.33 0 0.66 0 1 0 C1 3.3 1 6.6 1 10 C0.67 10 0.34 10 0 10 C0 6.7 0 3.4 0 0 Z " fill="#EAEEEF" transform="translate(509,419)"/>
<path d="M0 0 C0.33 0 0.66 0 1 0 C1 3.3 1 6.6 1 10 C0.67 10 0.34 10 0 10 C0 6.7 0 3.4 0 0 Z " fill="#EAEEEF" transform="translate(509,401)"/>
<path d="M0 0 C0.33 0 0.66 0 1 0 C1 2.97 1 5.94 1 9 C0.67 9 0.34 9 0 9 C0 6.03 0 3.06 0 0 Z " fill="#000102" transform="translate(286,495)"/>
<path d="M0 0 C2.97 0 5.94 0 9 0 C9 0.33 9 0.66 9 1 C6.03 1 3.06 1 0 1 C0 0.67 0 0.34 0 0 Z " fill="#EAEEEF" transform="translate(613,343)"/>
<path d="M0 0 C2.31 0 4.62 0 7 0 C7 0.33 7 0.66 7 1 C4.69 1 2.38 1 0 1 C0 0.67 0 0.34 0 0 Z " fill="#000102" transform="translate(548,393)"/>
<path d="M0 0 C0.33 0 0.66 0 1 0 C1 1.98 1 3.96 1 6 C0.67 6 0.34 6 0 6 C0 4.02 0 2.04 0 0 Z " fill="#EAEEEF" transform="translate(606,434)"/>
<path d="M0 0 C0.33 0 0.66 0 1 0 C1 1.98 1 3.96 1 6 C0.67 6 0.34 6 0 6 C0 4.02 0 2.04 0 0 Z " fill="#EAEEEF" transform="translate(509,412)"/>
<path d="M0 0 C1.98 0 3.96 0 6 0 C6 0.33 6 0.66 6 1 C4.02 1 2.04 1 0 1 C0 0.67 0 0.34 0 0 Z " fill="#000102" transform="translate(682,393)"/>
<path d="M0 0 C0.33 0 0.66 0 1 0 C1 1.98 1 3.96 1 6 C0.67 6 0.34 6 0 6 C0 4.02 0 2.04 0 0 Z " fill="#EAEEEF" transform="translate(509,385)"/>
<path d="M0 0 C1.98 0 3.96 0 6 0 C6 0.33 6 0.66 6 1 C4.02 1 2.04 1 0 1 C0 0.67 0 0.34 0 0 Z " fill="#000102" transform="translate(357,316)"/>
<path d="M0 0 C1.65 0 3.3 0 5 0 C5 0.33 5 0.66 5 1 C3.35 1 1.7 1 0 1 C0 0.67 0 0.34 0 0 Z " fill="#000102" transform="translate(786,486)"/>
<path d="M0 0 C0.66 0.33 1.32 0.66 2 1 C1.01 1.66 0.02 2.32 -1 3 C-0.67 2.01 -0.34 1.02 0 0 Z " fill="#19AAB2" transform="translate(967,456)"/>
<path d="M0 0 C0.33 0 0.66 0 1 0 C1 1.65 1 3.3 1 5 C0.67 5 0.34 5 0 5 C0 3.35 0 1.7 0 0 Z " fill="#19AAB2" transform="translate(347,438)"/>
<path d="M0 0 C0.66 0.33 1.32 0.66 2 1 C1.01 1.66 0.02 2.32 -1 3 C-0.67 2.01 -0.34 1.02 0 0 Z " fill="#19AAB2" transform="translate(987,410)"/>
<path d="M0 0 C0.33 0 0.66 0 1 0 C1 1.65 1 3.3 1 5 C0.67 5 0.34 5 0 5 C0 3.35 0 1.7 0 0 Z " fill="#EAEEEF" transform="translate(870,380)"/>
<path d="M0 0 C0.33 0 0.66 0 1 0 C1 1.65 1 3.3 1 5 C0.67 5 0.34 5 0 5 C0 3.35 0 1.7 0 0 Z " fill="#EAEEEF" transform="translate(509,377)"/>
<path d="M0 0 C0.33 0 0.66 0 1 0 C1 1.65 1 3.3 1 5 C0.67 5 0.34 5 0 5 C0 3.35 0 1.7 0 0 Z " fill="#000102" transform="translate(1024,374)"/>
<path d="M0 0 C0.66 0.33 1.32 0.66 2 1 C1.01 1.66 0.02 2.32 -1 3 C-0.67 2.01 -0.34 1.02 0 0 Z " fill="#19AAB2" transform="translate(872,372)"/>
<path d="M0 0 C0.33 0 0.66 0 1 0 C1 1.65 1 3.3 1 5 C0.67 5 0.34 5 0 5 C0 3.35 0 1.7 0 0 Z " fill="#EAEEEF" transform="translate(606,357)"/>
<path d="M0 0 C0.33 0 0.66 0 1 0 C1 1.65 1 3.3 1 5 C0.67 5 0.34 5 0 5 C0 3.35 0 1.7 0 0 Z " fill="#EAEEEF" transform="translate(509,353)"/>
<path d="M0 0 C0.33 0 0.66 0 1 0 C1 1.65 1 3.3 1 5 C0.67 5 0.34 5 0 5 C0 3.35 0 1.7 0 0 Z " fill="#000102" transform="translate(287,348)"/>
<path d="M0 0 C1.65 0 3.3 0 5 0 C5 0.33 5 0.66 5 1 C3.35 1 1.7 1 0 1 C0 0.67 0 0.34 0 0 Z " fill="#EAEEEF" transform="translate(843,343)"/>
<path d="M0 0 C1.65 0 3.3 0 5 0 C5 0.33 5 0.66 5 1 C3.35 1 1.7 1 0 1 C0 0.67 0 0.34 0 0 Z " fill="#000102" transform="translate(335,316)"/>
<path d="M0 0 C0.99 0.33 1.98 0.66 3 1 C2.01 1 1.02 1 0 1 C0 0.67 0 0.34 0 0 Z " fill="#4DBBC1" transform="translate(624,454)"/>
<path d="M0 0 C1 4 1 4 1 4 Z " fill="#000102" transform="translate(760,408)"/>
<path d="M0 0 C0 3 0 3 0 3 Z " fill="#19AAB2" transform="translate(839,372)"/>
<path d="M0 0 C1 4 1 4 1 4 Z " fill="#EAEEEF" transform="translate(606,347)"/>
<path d="M0 0 C1 4 1 4 1 4 Z " fill="#000102" transform="translate(289,318)"/>
<path d="" fill="#EAEEEF" transform="translate(0,0)"/>
<path d="M0 0 C0.33 0.66 0.66 1.32 1 2 C0.34 1.67 -0.32 1.34 -1 1 C-0.67 0.67 -0.34 0.34 0 0 Z " fill="#19AAB2" transform="translate(788,433)"/>
<path d="" fill="#000102" transform="translate(0,0)"/>
<path d="" fill="#EAEEEF" transform="translate(0,0)"/>
<path d="" fill="#19AAB2" transform="translate(0,0)"/>
<path d="M0 0 C3 1 3 1 3 1 Z " fill="#EAEEEF" transform="translate(942,371)"/>
<path d="M0 0 C3 1 3 1 3 1 Z " fill="#EAEEEF" transform="translate(938,371)"/>
<path d="M0 0 C3 1 3 1 3 1 Z " fill="#EAEEEF" transform="translate(878,371)"/>
<path d="M0 0 C3 1 3 1 3 1 Z " fill="#EAEEEF" transform="translate(874,371)"/>
<path d="M0 0 C3 1 3 1 3 1 Z " fill="#EAEEEF" transform="translate(853,371)"/>
<path d="M0 0 C3 1 3 1 3 1 Z " fill="#EAEEEF" transform="translate(775,371)"/>
<path d="" fill="#EAEEEF" transform="translate(0,0)"/>
<path d="" fill="#EAEEEF" transform="translate(0,0)"/>
<path d="M0 0 C3 1 3 1 3 1 Z " fill="#EAEEEF" transform="translate(849,343)"/>
<path d="M0 0 C3 1 3 1 3 1 Z " fill="#EAEEEF" transform="translate(515,343)"/>
<path d="M0 0 C0.99 0.5 0.99 0.5 2 1 C1.01 1.5 1.01 1.5 0 2 C0 1.34 0 0.68 0 0 Z " fill="#EAEEEF" transform="translate(509,343)"/>
<path d="" fill="#19AAB2" transform="translate(0,0)"/>
<path d="" fill="#19AAB2" transform="translate(0,0)"/>
<path d="" fill="#19AAB2" transform="translate(0,0)"/>
<path d="M0 0 C2 1 2 1 2 1 Z " fill="#81CCD0" transform="translate(556,434)"/>
<path d="" fill="#EAEEEF" transform="translate(0,0)"/>
<path d="" fill="#EAEEEF" transform="translate(0,0)"/>
<path d="" fill="#0C555A" transform="translate(0,0)"/>
<path d="" fill="#EAEEEF" transform="translate(0,0)"/>
<path d="" fill="#EAEEEF" transform="translate(0,0)"/>
<path d="" fill="#EAEEEF" transform="translate(0,0)"/>
<path d="" fill="#EAEEEF" transform="translate(0,0)"/>
<path d="M0 0 C2 1 2 1 2 1 Z " fill="#19AAB2" transform="translate(538,396)"/>
<path d="M0 0 C2 1 2 1 2 1 Z " fill="#000102" transform="translate(679,394)"/>
<path d="" fill="#000102" transform="translate(0,0)"/>
<path d="" fill="#EAEEEF" transform="translate(0,0)"/>
<path d="" fill="#81CCD0" transform="translate(0,0)"/>
<path d="M0 0 C2 1 2 1 2 1 Z " fill="#EAEEEF" transform="translate(845,371)"/>
<path d="M0 0 C2 1 2 1 2 1 Z " fill="#EAEEEF" transform="translate(807,371)"/>
<path d="" fill="#19AAB2" transform="translate(0,0)"/>
<path d="" fill="#EAEEEF" transform="translate(0,0)"/>
<path d="" fill="#EAEEEF" transform="translate(0,0)"/>
<path d="" fill="#000102" transform="translate(0,0)"/>
<path d="" fill="#EAEEEF" transform="translate(0,0)"/>
<path d="M0 0 C2 1 2 1 2 1 Z " fill="#EAEEEF" transform="translate(520,343)"/>
<path d="" fill="#EAEEEF" transform="translate(0,0)"/>
<path d="" fill="#000102" transform="translate(0,0)"/>
<path d="" fill="#000102" transform="translate(0,0)"/>
<path d="" fill="#000102" transform="translate(0,0)"/>
<path d="" fill="#000102" transform="translate(0,0)"/>
<path d="" fill="#000102" transform="translate(0,0)"/>
<path d="" fill="#000102" transform="translate(0,0)"/>
<path d="" fill="#EAEEEF" transform="translate(0,0)"/>
<path d="" fill="#EAEEEF" transform="translate(0,0)"/>
<path d="" fill="#19AAB2" transform="translate(0,0)"/>
<path d="" fill="#EAEEEF" transform="translate(0,0)"/>
<path d="" fill="#19AAB2" transform="translate(0,0)"/>
<path d="" fill="#000102" transform="translate(0,0)"/>
<path d="" fill="#19AAB2" transform="translate(0,0)"/>
<path d="" fill="#19AAB2" transform="translate(0,0)"/>
<path d="" fill="#19AAB2" transform="translate(0,0)"/>
<path d="" fill="#EAEEEF" transform="translate(0,0)"/>
<path d="" fill="#EAEEEF" transform="translate(0,0)"/>
<path d="" fill="#19AAB2" transform="translate(0,0)"/>
<path d="" fill="#EAEEEF" transform="translate(0,0)"/>
<path d="" fill="#EAEEEF" transform="translate(0,0)"/>
<path d="" fill="#EAEEEF" transform="translate(0,0)"/>
<path d="" fill="#EAEEEF" transform="translate(0,0)"/>
<path d="" fill="#EAEEEF" transform="translate(0,0)"/>
<path d="" fill="#EAEEEF" transform="translate(0,0)"/>
<path d="" fill="#EAEEEF" transform="translate(0,0)"/>
<path d="" fill="#EAEEEF" transform="translate(0,0)"/>
<path d="" fill="#19AAB2" transform="translate(0,0)"/>
<path d="" fill="#000102" transform="translate(0,0)"/>
<path d="" fill="#000102" transform="translate(0,0)"/>
<path d="" fill="#19AAB2" transform="translate(0,0)"/>
<path d="" fill="#000102" transform="translate(0,0)"/>
<path d="" fill="#000102" transform="translate(0,0)"/>
<path d="" fill="#EAEEEF" transform="translate(0,0)"/>
<path d="" fill="#000102" transform="translate(0,0)"/>
<path d="" fill="#EAEEEF" transform="translate(0,0)"/>
<path d="" fill="#EAEEEF" transform="translate(0,0)"/>
<path d="" fill="#19AAB2" transform="translate(0,0)"/>
<path d="" fill="#EAEEEF" transform="translate(0,0)"/>
<path d="" fill="#EAEEEF" transform="translate(0,0)"/>
<path d="" fill="#EAEEEF" transform="translate(0,0)"/>
<path d="" fill="#EAEEEF" transform="translate(0,0)"/>
<path d="" fill="#EAEEEF" transform="translate(0,0)"/>
<path d="" fill="#19AAB2" transform="translate(0,0)"/>
<path d="" fill="#EAEEEF" transform="translate(0,0)"/>
<path d="" fill="#19AAB2" transform="translate(0,0)"/>
<path d="" fill="#EAEEEF" transform="translate(0,0)"/>
<path d="" fill="#000102" transform="translate(0,0)"/>
<path d="" fill="#19AAB2" transform="translate(0,0)"/>
<path d="" fill="#19AAB2" transform="translate(0,0)"/>
<path d="" fill="#19AAB2" transform="translate(0,0)"/>
<path d="" fill="#19AAB2" transform="translate(0,0)"/>
<path d="" fill="#EAEEEF" transform="translate(0,0)"/>
<path d="" fill="#EAEEEF" transform="translate(0,0)"/>
</svg>
